<svg xmlns="http://www.w3.org/2000/svg" width="301.473" height="54" viewBox="0 0 301.473 54"><defs><style>.a{fill:#ff6562;}.a,.b,.c{fill-rule:evenodd;}.c{fill:#fff;}</style></defs><g transform="translate(-0.218 -0.491)"><path class="a" d="M88.86,42.495H9.466V20.487h9.25l0-9.262H88.86ZM17.429,19.2H9.52V11.29h7.906ZM12.266.5,21.607.491V9.842H12.259ZM2.792,5.467H8.539v5.749H2.792Zm3.174,13.6H.218V13.316H5.966Z"/><path class="b" d="M613.081,74.941a3.6,3.6,0,0,0-1.8-.427,2.165,2.165,0,0,0-1.656.51,1.7,1.7,0,0,0-.52,1.222,1.765,1.765,0,0,0,.154.771,1.5,1.5,0,0,0,.509.569,4.7,4.7,0,0,0,.9.475q.544.226,1.325.486a21.1,21.1,0,0,1,2.2.866,7.262,7.262,0,0,1,1.715,1.092,4.485,4.485,0,0,1,1.124,1.483,4.76,4.76,0,0,1,.4,2.041,5.055,5.055,0,0,1-.367,1.875,4.561,4.561,0,0,1-1.136,1.649,5.836,5.836,0,0,1-1.952,1.175,7.988,7.988,0,0,1-2.839.451,7.644,7.644,0,0,1-3.892-.925,5.986,5.986,0,0,1-2.378-2.42l2.484-1.851a5.359,5.359,0,0,0,1.514,1.554,3.806,3.806,0,0,0,2.177.605,3.486,3.486,0,0,0,2.082-.522,1.768,1.768,0,0,0,.71-1.519,1.855,1.855,0,0,0-.189-.878,1.816,1.816,0,0,0-.58-.629,4.659,4.659,0,0,0-.97-.5q-.58-.225-1.384-.463a15.99,15.99,0,0,1-2.118-.807,6.329,6.329,0,0,1-1.644-1.092,4.539,4.539,0,0,1-1.065-1.495,4.945,4.945,0,0,1-.379-2.017,4.435,4.435,0,0,1,1.455-3.275,5.442,5.442,0,0,1,1.8-1.068,7.02,7.02,0,0,1,2.472-.4,8,8,0,0,1,2.082.249,6.119,6.119,0,0,1,1.632.688,5.847,5.847,0,0,1,1.242,1.02,7.362,7.362,0,0,1,.911,1.222l-2.484,1.851A4.991,4.991,0,0,0,613.081,74.941Zm-24.557-3.156h10.267v3.061h-6.743v3.773h5.631v2.966h-5.631v4.224h6.743V88.87H588.524ZM577.783,88.87h-3.549V74.8h-4.542V71.785h12.633V74.8h-4.542Zm-16.442-3.583h-7l-1.419,3.583H549.2l7.287-17.085h2.934l7.31,17.085h-3.951Zm-3.5-8.827-2.46,6.169H560.3ZM541.705,88.87h-3.549V74.8h-4.542V71.785h12.633V74.8h-4.542ZM520.413,77.587a4.7,4.7,0,0,0,.9.475q.544.226,1.325.486a21.062,21.062,0,0,1,2.2.866,7.268,7.268,0,0,1,1.715,1.092,4.488,4.488,0,0,1,1.124,1.483,4.755,4.755,0,0,1,.4,2.041,5.052,5.052,0,0,1-.367,1.875,4.558,4.558,0,0,1-1.136,1.649,5.833,5.833,0,0,1-1.952,1.175,7.987,7.987,0,0,1-2.839.451,7.643,7.643,0,0,1-3.892-.925,5.983,5.983,0,0,1-2.378-2.42L518,83.982a5.359,5.359,0,0,0,1.514,1.554,3.808,3.808,0,0,0,2.177.605,3.487,3.487,0,0,0,2.082-.522,1.768,1.768,0,0,0,.71-1.519,1.856,1.856,0,0,0-.189-.878,1.816,1.816,0,0,0-.58-.629,4.65,4.65,0,0,0-.97-.5q-.58-.225-1.384-.463a16.006,16.006,0,0,1-2.117-.807,6.337,6.337,0,0,1-1.644-1.092,4.539,4.539,0,0,1-1.064-1.495,4.944,4.944,0,0,1-.378-2.017,4.434,4.434,0,0,1,1.455-3.275,5.441,5.441,0,0,1,1.8-1.068,7.017,7.017,0,0,1,2.472-.4,8,8,0,0,1,2.082.249,6.12,6.12,0,0,1,1.633.688,5.846,5.846,0,0,1,1.242,1.02,7.349,7.349,0,0,1,.911,1.222l-2.484,1.851a4.992,4.992,0,0,0-1.538-1.566,3.6,3.6,0,0,0-1.8-.427,2.164,2.164,0,0,0-1.656.51,1.7,1.7,0,0,0-.521,1.222,1.765,1.765,0,0,0,.154.771A1.5,1.5,0,0,0,520.413,77.587Zm-21.245-5.8h10.268v3.061h-6.742v3.773h5.631v2.966h-5.631v4.224h6.742V88.87H499.169Zm-25.976,0h3.525v14.19h6.742V88.87H473.193ZM461.6,85.287h-7l-1.419,3.583h-3.714l7.287-17.085h2.934l7.31,17.085h-3.951Zm-3.5-8.827-2.46,6.169h4.921Zm-24.486-4.675h10.267v3.061h-6.742v3.773h5.631v2.966h-5.631v4.224h6.742V88.87H433.614ZM423.441,88.87l-3.975-6.027h-1.75V88.87h-3.525V71.785h5.394a10.8,10.8,0,0,1,2.768.332,6.312,6.312,0,0,1,2.153,1,4.552,4.552,0,0,1,1.4,1.673,5.283,5.283,0,0,1,.5,2.361,5.359,5.359,0,0,1-.923,3.251,5.484,5.484,0,0,1-2.531,1.875l4.59,6.6ZM421.868,75.3a4.484,4.484,0,0,0-2.567-.641h-1.585V80.09h1.514a4.338,4.338,0,0,0,2.626-.7,2.5,2.5,0,0,0,.946-2.147A2.2,2.2,0,0,0,421.868,75.3Z" transform="translate(-315.743 -54.142)"/><path class="c" d="M151.434,85.944a5.834,5.834,0,0,0,2,1.281,6.9,6.9,0,0,0,2.542.454,9.033,9.033,0,0,0,2.023-.214,7.182,7.182,0,0,0,1.783-.667v3.55a6.33,6.33,0,0,1-1.85.667,11.1,11.1,0,0,1-2.089.187,11.686,11.686,0,0,1-4.125-.707,9.419,9.419,0,0,1-3.247-2,9.015,9.015,0,0,1-2.116-3.136,10.631,10.631,0,0,1-.759-4.084,10.46,10.46,0,0,1,.759-4.044,9.234,9.234,0,0,1,2.129-3.15,9.528,9.528,0,0,1,3.26-2.042,11.561,11.561,0,0,1,4.152-.721,11.421,11.421,0,0,1,2.009.173,6.678,6.678,0,0,1,1.823.6v3.657a6.777,6.777,0,0,0-1.757-.667,9.062,9.062,0,0,0-2.023-.214,6.98,6.98,0,0,0-2.568.454,5.6,5.6,0,0,0-1.983,1.295,5.936,5.936,0,0,0-1.291,2.042,7.328,7.328,0,0,0-.466,2.669,6.867,6.867,0,0,0,.479,2.616A5.9,5.9,0,0,0,151.434,85.944ZM127.254,71.662h11.551v3.444H131.22V79.35h6.334v3.337H131.22v4.752h7.585v3.444H127.254Zm-12.083,19.22h-3.992V75.052h-5.11v-3.39h14.213v3.39h-5.11Z" transform="translate(-80.734 -54.018)"/><path class="b" d="M133.74,206.29v-2.316a4.077,4.077,0,0,0-.051-.7,1.237,1.237,0,0,0-.17-.468.679.679,0,0,0-.316-.26,1.29,1.29,0,0,0-.489-.081c-.079,0-.16,0-.244.009s-.164.013-.241.021-.145.019-.205.03l-.13.025v3.738h-.733v-4.3q.252-.068.67-.145a5.391,5.391,0,0,1,.962-.077,1.946,1.946,0,0,1,.812.149,1.286,1.286,0,0,1,.517.417,1.675,1.675,0,0,1,.272.643,4.022,4.022,0,0,1,.079.826v2.486Zm-4.618-.528a1.764,1.764,0,0,1-.611.473,1.885,1.885,0,0,1-1.546,0,1.762,1.762,0,0,1-.611-.473,2.225,2.225,0,0,1-.4-.732,3.261,3.261,0,0,1,0-1.9,2.22,2.22,0,0,1,.4-.736,1.765,1.765,0,0,1,.611-.473,1.885,1.885,0,0,1,1.546,0,1.767,1.767,0,0,1,.611.473,2.22,2.22,0,0,1,.4.736,3.261,3.261,0,0,1,0,1.9A2.225,2.225,0,0,1,129.122,205.762Zm-.536-2.873a1.039,1.039,0,0,0-1.7,0,2.419,2.419,0,0,0,0,2.375,1.039,1.039,0,0,0,1.7,0,2.419,2.419,0,0,0,0-2.375Zm-4.642-1.826a.452.452,0,0,1-.335-.14.589.589,0,0,1,0-.758.47.47,0,0,1,.67,0,.589.589,0,0,1,0,.758A.452.452,0,0,1,123.944,201.062Zm-2.619,5.321a1.783,1.783,0,0,1-.69-.115,1.012,1.012,0,0,1-.438-.345,1.433,1.433,0,0,1-.233-.566,4.007,4.007,0,0,1-.067-.779v-3.95l.734-.136v1.371h1.554v.664h-1.554v2.043a2.644,2.644,0,0,0,.047.549.858.858,0,0,0,.142.341.51.51,0,0,0,.237.174.975.975,0,0,0,.331.051,1.454,1.454,0,0,0,.532-.081q.2-.081.28-.115l.142.656a2.578,2.578,0,0,1-.386.149A2.05,2.05,0,0,1,121.325,206.383Zm-4.733,0a1.9,1.9,0,0,1-.8-.149,1.3,1.3,0,0,1-.521-.421,1.775,1.775,0,0,1-.284-.643,3.6,3.6,0,0,1-.087-.822v-2.486h.734v2.316a2.135,2.135,0,0,0,.237,1.158.891.891,0,0,0,.8.349q.118,0,.244-.009c.084-.006.163-.013.237-.021l.2-.026a.557.557,0,0,0,.13-.03v-3.738h.734v4.3q-.253.068-.667.145A5.323,5.323,0,0,1,116.592,206.383Zm-3.991-.324a1.306,1.306,0,0,1-.284-.928v-5.313l.734-.136V205a1.377,1.377,0,0,0,.032.324.454.454,0,0,0,.1.2.435.435,0,0,0,.189.115,1.833,1.833,0,0,0,.292.064l-.1.664A1.339,1.339,0,0,1,112.6,206.06Zm-2.307-.3a1.763,1.763,0,0,1-.611.473,1.884,1.884,0,0,1-1.546,0,1.762,1.762,0,0,1-.611-.473,2.221,2.221,0,0,1-.4-.732,3.261,3.261,0,0,1,0-1.9,2.216,2.216,0,0,1,.4-.736,1.764,1.764,0,0,1,.611-.473,1.884,1.884,0,0,1,1.546,0,1.765,1.765,0,0,1,.611.473,2.224,2.224,0,0,1,.4.736,3.256,3.256,0,0,1,0,1.9A2.229,2.229,0,0,1,110.294,205.762Zm-.537-2.873a1.039,1.039,0,0,0-1.7,0,2.419,2.419,0,0,0,0,2.375,1.039,1.039,0,0,0,1.7,0,2.419,2.419,0,0,0,0-2.375Zm-5.573,3.5a2.924,2.924,0,0,1-.852-.1,4.172,4.172,0,0,1-.418-.149l.134-.681q.126.051.4.153a2.157,2.157,0,0,0,.734.1,1.352,1.352,0,0,0,.667-.128.439.439,0,0,0,.217-.409.558.558,0,0,0-.213-.46,3.3,3.3,0,0,0-.7-.383q-.237-.1-.454-.209a1.576,1.576,0,0,1-.375-.251,1.09,1.09,0,0,1-.252-.349,1.191,1.191,0,0,1-.095-.5,1.165,1.165,0,0,1,.4-.932,1.629,1.629,0,0,1,1.1-.345,2.886,2.886,0,0,1,.347.021q.174.021.323.051t.264.064c.076.023.135.042.177.06l-.134.681a1.784,1.784,0,0,0-.371-.14,2.227,2.227,0,0,0-.607-.072,1.054,1.054,0,0,0-.536.132.443.443,0,0,0-.229.413.6.6,0,0,0,.051.255.58.58,0,0,0,.158.2,1.263,1.263,0,0,0,.264.166q.158.077.378.162.292.119.521.234a1.621,1.621,0,0,1,.391.268,1.03,1.03,0,0,1,.248.37,1.435,1.435,0,0,1,.087.532,1.086,1.086,0,0,1-.422.928A1.982,1.982,0,0,1,104.185,206.392Zm-5.593-.332a1.305,1.305,0,0,1-.284-.928v-5.313l.733-.136V205a1.377,1.377,0,0,0,.032.324.456.456,0,0,0,.1.2.437.437,0,0,0,.189.115,1.822,1.822,0,0,0,.292.064l-.1.664A1.339,1.339,0,0,1,98.592,206.06Zm-4.606-1.771a1.692,1.692,0,0,0,.371,1.047,1.3,1.3,0,0,0,1.01.358,2.5,2.5,0,0,0,.651-.072,2.225,2.225,0,0,0,.4-.14l.1.664a2.075,2.075,0,0,1-.469.162,3.1,3.1,0,0,1-.761.085,2.259,2.259,0,0,1-.927-.175,1.733,1.733,0,0,1-.643-.481,2.006,2.006,0,0,1-.375-.728,3.3,3.3,0,0,1-.122-.924,3.031,3.031,0,0,1,.158-1.026,2.177,2.177,0,0,1,.418-.728,1.7,1.7,0,0,1,.6-.434,1.75,1.75,0,0,1,.694-.145,1.525,1.525,0,0,1,1.27.558,2.711,2.711,0,0,1,.442,1.7v.132a1.307,1.307,0,0,1-.008.149Zm1.8-1.52a.832.832,0,0,0-.706-.345.909.909,0,0,0-.446.107,1.068,1.068,0,0,0-.327.277,1.3,1.3,0,0,0-.209.392,2.052,2.052,0,0,0-.1.451h2.035A1.4,1.4,0,0,0,95.788,202.769Zm-4.752,1.2a4.1,4.1,0,0,0-.051-.7,1.241,1.241,0,0,0-.17-.468.681.681,0,0,0-.316-.26,1.29,1.29,0,0,0-.489-.081c-.079,0-.16,0-.244.009s-.164.013-.241.021-.145.019-.205.03l-.13.025v3.738h-.733v-4.3q.252-.068.67-.145a5.387,5.387,0,0,1,.962-.077,1.944,1.944,0,0,1,.812.149,1.285,1.285,0,0,1,.517.417,1.675,1.675,0,0,1,.272.643,4.022,4.022,0,0,1,.079.826v2.486h-.733Zm-4.993,0a4.074,4.074,0,0,0-.051-.7,1.237,1.237,0,0,0-.169-.468.681.681,0,0,0-.316-.26,1.29,1.29,0,0,0-.489-.081c-.079,0-.16,0-.244.009s-.164.013-.241.021-.145.019-.205.03l-.13.025v3.738h-.734v-4.3q.252-.068.671-.145a5.386,5.386,0,0,1,.962-.077,1.946,1.946,0,0,1,.812.149,1.287,1.287,0,0,1,.517.417,1.675,1.675,0,0,1,.272.643,4.023,4.023,0,0,1,.079.826v2.486h-.733Zm-4.906,2.341q-.213.025-.462.047t-.493.021a2.515,2.515,0,0,1-.639-.077,1.38,1.38,0,0,1-.5-.243,1.094,1.094,0,0,1-.331-.438,1.637,1.637,0,0,1-.118-.655,1.343,1.343,0,0,1,.138-.63,1.154,1.154,0,0,1,.375-.426,1.665,1.665,0,0,1,.552-.238,2.789,2.789,0,0,1,.663-.077,2.124,2.124,0,0,1,.229.013c.079.008.154.02.225.034l.186.038.11.025v-.221a1.929,1.929,0,0,0-.039-.387.922.922,0,0,0-.142-.341.729.729,0,0,0-.28-.238,1.027,1.027,0,0,0-.461-.089,3.224,3.224,0,0,0-.635.055,2.1,2.1,0,0,0-.406.115l-.087-.656a2.13,2.13,0,0,1,.473-.132,3.779,3.779,0,0,1,.718-.064,1.988,1.988,0,0,1,.745.123,1.209,1.209,0,0,1,.489.349,1.363,1.363,0,0,1,.264.536,2.791,2.791,0,0,1,.079.685v2.767l-.264.047Q81.349,206.29,81.136,206.315Zm-.071-1.975a.894.894,0,0,0-.256-.072,2.67,2.67,0,0,0-.43-.03,2.6,2.6,0,0,0-.351.025,1.026,1.026,0,0,0-.339.107.741.741,0,0,0-.256.221.614.614,0,0,0-.1.37.654.654,0,0,0,.252.592,1.235,1.235,0,0,0,.686.166q.261,0,.462-.013a1.873,1.873,0,0,0,.335-.047Zm-4.575-.366a4.1,4.1,0,0,0-.051-.7,1.241,1.241,0,0,0-.17-.468.681.681,0,0,0-.316-.26,1.29,1.29,0,0,0-.489-.081,1.859,1.859,0,0,0-.244.017c-.084.012-.164.024-.241.038s-.145.03-.205.047a1.159,1.159,0,0,0-.13.043v3.678h-.733v-6.471l.733-.136v2.265a2.412,2.412,0,0,1,.9-.179,1.946,1.946,0,0,1,.812.149,1.286,1.286,0,0,1,.517.417,1.675,1.675,0,0,1,.272.643,4.023,4.023,0,0,1,.079.826v2.486H76.49Zm-5.865,1.277a1.063,1.063,0,0,0,.414.328,1.478,1.478,0,0,0,.615.115,2.161,2.161,0,0,0,.529-.06,1.823,1.823,0,0,0,.371-.128l.1.664a.743.743,0,0,1-.181.081,2.5,2.5,0,0,1-.268.068q-.15.03-.319.051a2.669,2.669,0,0,1-.327.021,2.09,2.09,0,0,1-.872-.17,1.757,1.757,0,0,1-.631-.477,2.023,2.023,0,0,1-.383-.728,3.238,3.238,0,0,1-.126-.932,3.023,3.023,0,0,1,.138-.937,2.26,2.26,0,0,1,.39-.737,1.766,1.766,0,0,1,.619-.485,1.876,1.876,0,0,1,.816-.174,3.019,3.019,0,0,1,.552.051,2.4,2.4,0,0,1,.528.162l-.166.672a1.684,1.684,0,0,0-.383-.136,2.017,2.017,0,0,0-.462-.051,1.127,1.127,0,0,0-.943.417,1.941,1.941,0,0,0-.327,1.218,2.681,2.681,0,0,0,.075.656A1.4,1.4,0,0,0,70.626,205.251Zm-5.675-4.862h.765v5.9h-.765Zm-2.859,5.193q-.225-.392-.485-.813t-.54-.856q-.28-.434-.556-.839t-.537-.762q-.26-.358-.481-.63v4.606h-.749v-5.9h.607q.371.426.793.992t.836,1.167q.414.6.781,1.179t.619,1.03V200.39h.749v5.9h-.639Q62.316,205.975,62.091,205.583Zm-5.857-1.656q-.056-1.17-.142-2.175-.079.145-.209.417t-.28.617l-.319.732q-.17.388-.319.753l-.28.681q-.13.315-.209.519H53.86q-.079-.2-.209-.519t-.28-.681q-.15-.366-.319-.753t-.32-.732q-.15-.345-.28-.617t-.209-.417q-.087,1-.142,2.175t-.095,2.363h-.749q.031-.766.071-1.545t.091-1.533q.051-.753.111-1.469t.13-1.354h.671q.213.375.457.885t.489,1.069q.245.558.473,1.115l.418,1.017.418-1.017q.229-.558.473-1.115t.489-1.069q.244-.511.457-.885h.67q.268,2.852.4,5.9h-.749Q56.289,205.1,56.235,203.927Zm-7.2,1.711a2.318,2.318,0,0,1-.824.583,2.567,2.567,0,0,1-1,.2,2.645,2.645,0,0,1-1.014-.2,2.335,2.335,0,0,1-.836-.583,2.8,2.8,0,0,1-.568-.966,4.378,4.378,0,0,1,0-2.674,2.8,2.8,0,0,1,.568-.966,2.341,2.341,0,0,1,.836-.583,2.645,2.645,0,0,1,1.014-.2,2.567,2.567,0,0,1,1,.2,2.324,2.324,0,0,1,.824.583A2.841,2.841,0,0,1,49.6,202a4.378,4.378,0,0,1,0,2.674A2.837,2.837,0,0,1,49.033,205.638Zm-.166-3.278a2.246,2.246,0,0,0-.359-.745,1.606,1.606,0,0,0-.564-.473,1.65,1.65,0,0,0-.749-.166,1.675,1.675,0,0,0-.753.166,1.6,1.6,0,0,0-.568.473,2.246,2.246,0,0,0-.359.745,3.828,3.828,0,0,0,0,1.95,2.246,2.246,0,0,0,.359.745,1.6,1.6,0,0,0,.568.473,1.675,1.675,0,0,0,.753.166,1.65,1.65,0,0,0,.749-.166,1.606,1.606,0,0,0,.564-.473,2.246,2.246,0,0,0,.359-.745,3.828,3.828,0,0,0,0-1.95Zm75.447,3.929h-.734v-4.427h.734Z" transform="translate(-33.839 -151.926)"/></g></svg>